<mxfile host="app.diagrams.net" agent="Mozilla/5.0 (Windows NT 10.0; Win64; x64) AppleWebKit/537.36 (KHTML, like Gecko) Chrome/127.0.0.0 Safari/537.36" version="24.7.7">
  <diagram id="C5RBs43oDa-KdzZeNtuy" name="Page-1">
    <mxGraphModel grid="1" page="0" gridSize="10" guides="1" tooltips="1" connect="1" arrows="1" fold="1" pageScale="1" pageWidth="827" pageHeight="1169" math="0" shadow="0">
      <root>
        <mxCell id="WIyWlLk6GJQsqaUBKTNV-0" />
        <mxCell id="WIyWlLk6GJQsqaUBKTNV-1" parent="WIyWlLk6GJQsqaUBKTNV-0" />
        <mxCell id="M4-ka_P6qyNskd-XwN5T-8" value="Rfid" style="swimlane;fontStyle=1;align=center;verticalAlign=top;childLayout=stackLayout;horizontal=1;startSize=26;horizontalStack=0;resizeParent=1;resizeParentMax=0;resizeLast=0;collapsible=1;marginBottom=0;whiteSpace=wrap;html=1;strokeColor=#0F8B8D;fontColor=#143642;fillColor=#FAE5C7;labelBackgroundColor=none;" vertex="1" parent="WIyWlLk6GJQsqaUBKTNV-1">
          <mxGeometry x="1060" y="370" width="185" height="210" as="geometry" />
        </mxCell>
        <mxCell id="M4-ka_P6qyNskd-XwN5T-9" value="&lt;div style=&quot;font-size: 13px;&quot;&gt;&lt;span style=&quot;text-wrap: nowrap; font-size: 13px;&quot;&gt;-id:int(PK)&lt;/span&gt;&lt;/div&gt;&lt;div style=&quot;font-size: 13px;&quot;&gt;&lt;span style=&quot;text-wrap: nowrap; font-size: 13px;&quot;&gt;-tag_rfid_value: string&lt;/span&gt;&lt;/div&gt;&lt;div style=&quot;font-size: 13px;&quot;&gt;&lt;span style=&quot;text-wrap: nowrap; font-size: 13px;&quot;&gt;-cod_corRFID_cargo: int(FK)&lt;/span&gt;&lt;/div&gt;&lt;div style=&quot;font-size: 13px;&quot;&gt;&lt;span style=&quot;text-wrap: nowrap; font-size: 13px;&quot;&gt;-cod_status_rfid: int(FK)&lt;/span&gt;&lt;/div&gt;&lt;div style=&quot;font-size: 13px;&quot;&gt;&lt;span style=&quot;text-wrap: nowrap; font-size: 13px;&quot;&gt;-data_cadastro: date&lt;/span&gt;&lt;/div&gt;&lt;div style=&quot;font-size: 13px;&quot;&gt;&lt;span style=&quot;text-wrap: nowrap; font-size: 13px;&quot;&gt;-data_desativacao: date&lt;/span&gt;&lt;/div&gt;&lt;div style=&quot;font-size: 13px;&quot;&gt;&lt;span style=&quot;text-wrap: nowrap; font-size: 13px;&quot;&gt;-vinculado: booleano&lt;/span&gt;&lt;/div&gt;" style="text;strokeColor=none;fillColor=none;align=left;verticalAlign=top;spacingLeft=4;spacingRight=4;overflow=hidden;rotatable=0;points=[[0,0.5],[1,0.5]];portConstraint=eastwest;whiteSpace=wrap;html=1;fontColor=#143642;fontSize=13;labelBackgroundColor=none;" vertex="1" parent="M4-ka_P6qyNskd-XwN5T-8">
          <mxGeometry y="26" width="185" height="114" as="geometry" />
        </mxCell>
        <mxCell id="M4-ka_P6qyNskd-XwN5T-10" value="" style="line;strokeWidth=1;fillColor=none;align=left;verticalAlign=middle;spacingTop=-1;spacingLeft=3;spacingRight=3;rotatable=0;labelPosition=right;points=[];portConstraint=eastwest;strokeColor=#0F8B8D;fontColor=#143642;labelBackgroundColor=none;" vertex="1" parent="M4-ka_P6qyNskd-XwN5T-8">
          <mxGeometry y="140" width="185" height="8" as="geometry" />
        </mxCell>
        <mxCell id="M4-ka_P6qyNskd-XwN5T-11" value="+cadastrarRfid(): void&lt;div style=&quot;font-size: 13px;&quot;&gt;+editarRfid(void): void&lt;/div&gt;&lt;div style=&quot;font-size: 13px;&quot;&gt;+desativarRfid(void): int&lt;/div&gt;" style="text;strokeColor=none;fillColor=none;align=left;verticalAlign=top;spacingLeft=4;spacingRight=4;overflow=hidden;rotatable=0;points=[[0,0.5],[1,0.5]];portConstraint=eastwest;whiteSpace=wrap;html=1;fontColor=#143642;fontSize=13;labelBackgroundColor=none;" vertex="1" parent="M4-ka_P6qyNskd-XwN5T-8">
          <mxGeometry y="148" width="185" height="62" as="geometry" />
        </mxCell>
        <mxCell id="M4-ka_P6qyNskd-XwN5T-16" value="Pessoas" style="swimlane;fontStyle=1;align=center;verticalAlign=top;childLayout=stackLayout;horizontal=1;startSize=26;horizontalStack=0;resizeParent=1;resizeParentMax=0;resizeLast=0;collapsible=1;marginBottom=0;whiteSpace=wrap;html=1;strokeColor=#0F8B8D;fontColor=#143642;fillColor=#FAE5C7;fontSize=13;labelBackgroundColor=none;" vertex="1" parent="WIyWlLk6GJQsqaUBKTNV-1">
          <mxGeometry x="532.5" y="50" width="185" height="250" as="geometry" />
        </mxCell>
        <mxCell id="M4-ka_P6qyNskd-XwN5T-17" value="-id: int (PK)&lt;div style=&quot;font-size: 13px;&quot;&gt;-matricula: string(13)&lt;br style=&quot;font-size: 13px;&quot;&gt;&lt;/div&gt;&lt;div style=&quot;font-size: 13px;&quot;&gt;-nome: string(20)&lt;br style=&quot;font-size: 13px;&quot;&gt;&lt;/div&gt;&lt;div style=&quot;font-size: 13px;&quot;&gt;-sobrenome: string(20)&lt;br style=&quot;font-size: 13px;&quot;&gt;&lt;/div&gt;&lt;div style=&quot;font-size: 13px;&quot;&gt;-cpf: string(14)&lt;br style=&quot;font-size: 13px;&quot;&gt;&lt;/div&gt;&lt;div style=&quot;font-size: 13px;&quot;&gt;-data_nascimento: date&lt;/div&gt;&lt;div style=&quot;font-size: 13px;&quot;&gt;-idade: int&lt;/div&gt;&lt;div style=&quot;font-size: 13px;&quot;&gt;-cargo_pessoa: int (FK)&lt;br style=&quot;font-size: 13px;&quot;&gt;&lt;/div&gt;&lt;div style=&quot;font-size: 13px;&quot;&gt;&lt;span style=&quot;text-wrap: nowrap;&quot;&gt;-vinculado: booleano&lt;/span&gt;&lt;br&gt;&lt;/div&gt;" style="text;strokeColor=none;fillColor=none;align=left;verticalAlign=top;spacingLeft=4;spacingRight=4;overflow=hidden;rotatable=0;points=[[0,0.5],[1,0.5]];portConstraint=eastwest;whiteSpace=wrap;html=1;fontColor=#143642;fontSize=13;labelBackgroundColor=none;" vertex="1" parent="M4-ka_P6qyNskd-XwN5T-16">
          <mxGeometry y="26" width="185" height="144" as="geometry" />
        </mxCell>
        <mxCell id="M4-ka_P6qyNskd-XwN5T-18" value="" style="line;strokeWidth=1;fillColor=none;align=left;verticalAlign=middle;spacingTop=-1;spacingLeft=3;spacingRight=3;rotatable=0;labelPosition=right;points=[];portConstraint=eastwest;strokeColor=#0F8B8D;fontColor=#143642;labelBackgroundColor=none;" vertex="1" parent="M4-ka_P6qyNskd-XwN5T-16">
          <mxGeometry y="170" width="185" height="8" as="geometry" />
        </mxCell>
        <mxCell id="M4-ka_P6qyNskd-XwN5T-19" value="+cadastrarPessoa(): void&lt;div style=&quot;font-size: 13px;&quot;&gt;+editarPessoa(): void&lt;/div&gt;&lt;div style=&quot;font-size: 13px;&quot;&gt;&lt;span style=&quot;background-color: initial; font-size: 13px;&quot;&gt;+listarPessoa(): void&lt;/span&gt;&lt;/div&gt;&lt;div style=&quot;font-size: 13px;&quot;&gt;&lt;span style=&quot;background-color: initial; font-size: 13px;&quot;&gt;+calcularIdade(int): int&lt;/span&gt;&lt;/div&gt;" style="text;strokeColor=none;fillColor=none;align=left;verticalAlign=top;spacingLeft=4;spacingRight=4;overflow=hidden;rotatable=0;points=[[0,0.5],[1,0.5]];portConstraint=eastwest;whiteSpace=wrap;html=1;fontColor=#143642;fontSize=13;labelBackgroundColor=none;" vertex="1" parent="M4-ka_P6qyNskd-XwN5T-16">
          <mxGeometry y="178" width="185" height="72" as="geometry" />
        </mxCell>
        <mxCell id="M4-ka_P6qyNskd-XwN5T-28" value="Cargo" style="swimlane;fontStyle=1;align=center;verticalAlign=top;childLayout=stackLayout;horizontal=1;startSize=26;horizontalStack=0;resizeParent=1;resizeParentMax=0;resizeLast=0;collapsible=1;marginBottom=0;whiteSpace=wrap;html=1;strokeColor=#0F8B8D;fontColor=#143642;fillColor=#FAE5C7;labelBackgroundColor=none;" vertex="1" parent="WIyWlLk6GJQsqaUBKTNV-1">
          <mxGeometry x="730" y="630" width="160" height="140" as="geometry" />
        </mxCell>
        <mxCell id="M4-ka_P6qyNskd-XwN5T-29" value="-id: int(PK)&lt;div style=&quot;font-size: 13px;&quot;&gt;-descricao: string(15)&lt;br style=&quot;font-size: 13px;&quot;&gt;&lt;/div&gt;" style="text;strokeColor=none;fillColor=none;align=left;verticalAlign=top;spacingLeft=4;spacingRight=4;overflow=hidden;rotatable=0;points=[[0,0.5],[1,0.5]];portConstraint=eastwest;whiteSpace=wrap;html=1;fontColor=#143642;fontSize=13;labelBackgroundColor=none;" vertex="1" parent="M4-ka_P6qyNskd-XwN5T-28">
          <mxGeometry y="26" width="160" height="44" as="geometry" />
        </mxCell>
        <mxCell id="M4-ka_P6qyNskd-XwN5T-30" value="" style="line;strokeWidth=1;fillColor=none;align=left;verticalAlign=middle;spacingTop=-1;spacingLeft=3;spacingRight=3;rotatable=0;labelPosition=right;points=[];portConstraint=eastwest;strokeColor=#0F8B8D;fontColor=#143642;labelBackgroundColor=none;" vertex="1" parent="M4-ka_P6qyNskd-XwN5T-28">
          <mxGeometry y="70" width="160" height="8" as="geometry" />
        </mxCell>
        <mxCell id="M4-ka_P6qyNskd-XwN5T-31" value="+cadastrarCargo(): void&lt;div style=&quot;font-size: 13px;&quot;&gt;+editarCargo(): void&lt;/div&gt;&lt;div style=&quot;font-size: 13px;&quot;&gt;+excluirCargo(): void&lt;/div&gt;" style="text;strokeColor=none;fillColor=none;align=left;verticalAlign=top;spacingLeft=4;spacingRight=4;overflow=hidden;rotatable=0;points=[[0,0.5],[1,0.5]];portConstraint=eastwest;whiteSpace=wrap;html=1;fontColor=#143642;fontSize=13;labelBackgroundColor=none;" vertex="1" parent="M4-ka_P6qyNskd-XwN5T-28">
          <mxGeometry y="78" width="160" height="62" as="geometry" />
        </mxCell>
        <mxCell id="M4-ka_P6qyNskd-XwN5T-32" value="Status_rfid" style="swimlane;fontStyle=1;align=center;verticalAlign=top;childLayout=stackLayout;horizontal=1;startSize=26;horizontalStack=0;resizeParent=1;resizeParentMax=0;resizeLast=0;collapsible=1;marginBottom=0;whiteSpace=wrap;html=1;strokeColor=#0F8B8D;fontColor=#143642;fillColor=#FAE5C7;labelBackgroundColor=none;" vertex="1" parent="WIyWlLk6GJQsqaUBKTNV-1">
          <mxGeometry x="1220" y="640" width="180" height="130" as="geometry" />
        </mxCell>
        <mxCell id="M4-ka_P6qyNskd-XwN5T-33" value="-id: int (PK)&lt;div style=&quot;font-size: 13px;&quot;&gt;-descricao: string(15)&lt;br style=&quot;font-size: 13px;&quot;&gt;&lt;/div&gt;" style="text;strokeColor=none;fillColor=none;align=left;verticalAlign=top;spacingLeft=4;spacingRight=4;overflow=hidden;rotatable=0;points=[[0,0.5],[1,0.5]];portConstraint=eastwest;whiteSpace=wrap;html=1;fontColor=#143642;fontSize=13;labelBackgroundColor=none;" vertex="1" parent="M4-ka_P6qyNskd-XwN5T-32">
          <mxGeometry y="26" width="180" height="44" as="geometry" />
        </mxCell>
        <mxCell id="M4-ka_P6qyNskd-XwN5T-62" value="" style="line;strokeWidth=1;fillColor=none;align=left;verticalAlign=middle;spacingTop=-1;spacingLeft=3;spacingRight=3;rotatable=0;labelPosition=right;points=[];portConstraint=eastwest;strokeColor=#0F8B8D;fontColor=#143642;labelBackgroundColor=none;" vertex="1" parent="M4-ka_P6qyNskd-XwN5T-32">
          <mxGeometry y="70" width="180" height="8" as="geometry" />
        </mxCell>
        <mxCell id="M4-ka_P6qyNskd-XwN5T-35" value="+cadastrarStatusRfid(): void&lt;div style=&quot;font-size: 13px;&quot;&gt;+editarStatusRfid(): void&lt;/div&gt;&lt;div style=&quot;font-size: 13px;&quot;&gt;+listarStatusRfid&lt;/div&gt;" style="text;strokeColor=none;fillColor=none;align=left;verticalAlign=top;spacingLeft=4;spacingRight=4;overflow=hidden;rotatable=0;points=[[0,0.5],[1,0.5]];portConstraint=eastwest;whiteSpace=wrap;html=1;fontColor=#143642;fontSize=13;labelBackgroundColor=none;" vertex="1" parent="M4-ka_P6qyNskd-XwN5T-32">
          <mxGeometry y="78" width="180" height="52" as="geometry" />
        </mxCell>
        <mxCell id="M4-ka_P6qyNskd-XwN5T-40" value="Acesso_campus" style="swimlane;fontStyle=1;align=center;verticalAlign=top;childLayout=stackLayout;horizontal=1;startSize=26;horizontalStack=0;resizeParent=1;resizeParentMax=0;resizeLast=0;collapsible=1;marginBottom=0;whiteSpace=wrap;html=1;strokeColor=#0F8B8D;fontColor=#143642;fillColor=#FAE5C7;labelBackgroundColor=none;" vertex="1" parent="WIyWlLk6GJQsqaUBKTNV-1">
          <mxGeometry x="90" y="570" width="190" height="130" as="geometry" />
        </mxCell>
        <mxCell id="M4-ka_P6qyNskd-XwN5T-41" value="-id: int (PK)&lt;div style=&quot;font-size: 13px;&quot;&gt;-cod_pessoa: int(FK)&lt;div style=&quot;font-size: 13px;&quot;&gt;-data: date&lt;br style=&quot;font-size: 13px;&quot;&gt;&lt;/div&gt;&lt;/div&gt;" style="text;strokeColor=none;fillColor=none;align=left;verticalAlign=top;spacingLeft=4;spacingRight=4;overflow=hidden;rotatable=0;points=[[0,0.5],[1,0.5]];portConstraint=eastwest;whiteSpace=wrap;html=1;fontColor=#143642;fontSize=13;labelBackgroundColor=none;" vertex="1" parent="M4-ka_P6qyNskd-XwN5T-40">
          <mxGeometry y="26" width="190" height="54" as="geometry" />
        </mxCell>
        <mxCell id="M4-ka_P6qyNskd-XwN5T-42" value="" style="line;strokeWidth=1;fillColor=none;align=left;verticalAlign=middle;spacingTop=-1;spacingLeft=3;spacingRight=3;rotatable=0;labelPosition=right;points=[];portConstraint=eastwest;strokeColor=#0F8B8D;fontColor=#143642;labelBackgroundColor=none;" vertex="1" parent="M4-ka_P6qyNskd-XwN5T-40">
          <mxGeometry y="80" width="190" height="8" as="geometry" />
        </mxCell>
        <mxCell id="M4-ka_P6qyNskd-XwN5T-43" value="+cadastrarAcesso(): void&lt;div style=&quot;font-size: 13px;&quot;&gt;+listarAcessos(): void&lt;/div&gt;" style="text;strokeColor=none;fillColor=none;align=left;verticalAlign=top;spacingLeft=4;spacingRight=4;overflow=hidden;rotatable=0;points=[[0,0.5],[1,0.5]];portConstraint=eastwest;whiteSpace=wrap;html=1;fontColor=#143642;fontSize=13;labelBackgroundColor=none;" vertex="1" parent="M4-ka_P6qyNskd-XwN5T-40">
          <mxGeometry y="88" width="190" height="42" as="geometry" />
        </mxCell>
        <mxCell id="M4-ka_P6qyNskd-XwN5T-45" value="VincularRfid" style="swimlane;fontStyle=1;align=center;verticalAlign=top;childLayout=stackLayout;horizontal=1;startSize=26;horizontalStack=0;resizeParent=1;resizeParentMax=0;resizeLast=0;collapsible=1;marginBottom=0;whiteSpace=wrap;html=1;strokeColor=#0F8B8D;fontColor=#143642;fillColor=#FAE5C7;" vertex="1" parent="WIyWlLk6GJQsqaUBKTNV-1">
          <mxGeometry x="1070" y="96" width="160" height="158" as="geometry" />
        </mxCell>
        <mxCell id="M4-ka_P6qyNskd-XwN5T-46" value="&lt;span style=&quot;font-size: 13px; text-wrap: nowrap;&quot;&gt;-id:int (PK)&lt;/span&gt;&lt;div style=&quot;font-size: 13px;&quot;&gt;&lt;span style=&quot;text-wrap: nowrap;&quot;&gt;-&lt;/span&gt;&lt;span style=&quot;text-wrap: nowrap;&quot;&gt;cod_rfid&lt;/span&gt;&lt;span style=&quot;text-wrap: nowrap;&quot;&gt;: int (FK)&lt;/span&gt;&lt;span style=&quot;text-wrap: nowrap;&quot;&gt;&lt;br&gt;&lt;/span&gt;&lt;/div&gt;&lt;div style=&quot;font-size: 13px;&quot;&gt;&lt;span style=&quot;text-wrap: nowrap;&quot;&gt;-cod_pessoa: int (FK)&lt;/span&gt;&lt;/div&gt;" style="text;strokeColor=none;fillColor=none;align=left;verticalAlign=top;spacingLeft=4;spacingRight=4;overflow=hidden;rotatable=0;points=[[0,0.5],[1,0.5]];portConstraint=eastwest;whiteSpace=wrap;html=1;fontColor=#143642;" vertex="1" parent="M4-ka_P6qyNskd-XwN5T-45">
          <mxGeometry y="26" width="160" height="64" as="geometry" />
        </mxCell>
        <mxCell id="M4-ka_P6qyNskd-XwN5T-47" value="" style="line;strokeWidth=1;fillColor=none;align=left;verticalAlign=middle;spacingTop=-1;spacingLeft=3;spacingRight=3;rotatable=0;labelPosition=right;points=[];portConstraint=eastwest;strokeColor=inherit;fontColor=#143642;" vertex="1" parent="M4-ka_P6qyNskd-XwN5T-45">
          <mxGeometry y="90" width="160" height="8" as="geometry" />
        </mxCell>
        <mxCell id="M4-ka_P6qyNskd-XwN5T-48" value="&lt;div style=&quot;font-size: 13px;&quot;&gt;&lt;font style=&quot;font-size: 13px;&quot;&gt;+vincularRfid(): void&lt;/font&gt;&lt;/div&gt;&lt;div style=&quot;font-size: 13px;&quot;&gt;&lt;font style=&quot;font-size: 13px;&quot;&gt;+desvincularRfid(): void&lt;/font&gt;&lt;/div&gt;&lt;div style=&quot;font-size: 13px;&quot;&gt;&lt;font style=&quot;font-size: 13px;&quot;&gt;+editarVinculo(): void&lt;/font&gt;&lt;/div&gt;" style="text;strokeColor=none;fillColor=none;align=left;verticalAlign=top;spacingLeft=4;spacingRight=4;overflow=hidden;rotatable=0;points=[[0,0.5],[1,0.5]];portConstraint=eastwest;whiteSpace=wrap;html=1;fontColor=#143642;fontSize=14;" vertex="1" parent="M4-ka_P6qyNskd-XwN5T-45">
          <mxGeometry y="98" width="160" height="60" as="geometry" />
        </mxCell>
        <mxCell id="M4-ka_P6qyNskd-XwN5T-58" value="Usuario_sistema" style="swimlane;fontStyle=1;align=center;verticalAlign=top;childLayout=stackLayout;horizontal=1;startSize=26;horizontalStack=0;resizeParent=1;resizeParentMax=0;resizeLast=0;collapsible=1;marginBottom=0;whiteSpace=wrap;html=1;strokeColor=#0F8B8D;fontColor=#143642;fillColor=#FAE5C7;labelBackgroundColor=none;" vertex="1" parent="WIyWlLk6GJQsqaUBKTNV-1">
          <mxGeometry x="110" y="80" width="180" height="190" as="geometry" />
        </mxCell>
        <mxCell id="M4-ka_P6qyNskd-XwN5T-59" value="&lt;span style=&quot;text-wrap: nowrap; font-size: 13px;&quot;&gt;-id:int (PK)&lt;/span&gt;&lt;div&gt;&lt;span style=&quot;text-wrap: nowrap;&quot;&gt;-cod_pessoa: int (FK)&lt;br&gt;&lt;/span&gt;&lt;div style=&quot;font-size: 13px;&quot;&gt;&lt;div&gt;-nome_de_usuario: string&lt;/div&gt;&lt;div&gt;-usuario: string&lt;/div&gt;&lt;div&gt;-senha: string&lt;/div&gt;&lt;div&gt;-usuario_pessoa: int (FK)&lt;/div&gt;&lt;/div&gt;&lt;/div&gt;" style="text;strokeColor=none;fillColor=none;align=left;verticalAlign=top;spacingLeft=4;spacingRight=4;overflow=hidden;rotatable=0;points=[[0,0.5],[1,0.5]];portConstraint=eastwest;whiteSpace=wrap;html=1;fontColor=#143642;fontSize=13;labelBackgroundColor=none;" vertex="1" parent="M4-ka_P6qyNskd-XwN5T-58">
          <mxGeometry y="26" width="180" height="84" as="geometry" />
        </mxCell>
        <mxCell id="M4-ka_P6qyNskd-XwN5T-60" value="" style="line;strokeWidth=1;fillColor=none;align=left;verticalAlign=middle;spacingTop=-1;spacingLeft=3;spacingRight=3;rotatable=0;labelPosition=right;points=[];portConstraint=eastwest;strokeColor=#0F8B8D;fontColor=#143642;labelBackgroundColor=none;" vertex="1" parent="M4-ka_P6qyNskd-XwN5T-58">
          <mxGeometry y="110" width="180" height="8" as="geometry" />
        </mxCell>
        <mxCell id="M4-ka_P6qyNskd-XwN5T-61" value="&lt;div&gt;+criarUsuario()&lt;/div&gt;&lt;div&gt;+editarUsuario()&lt;/div&gt;&lt;div&gt;+listarUsuarios()&lt;/div&gt;&lt;div&gt;+desativarUsuario()&lt;/div&gt;" style="text;strokeColor=none;fillColor=none;align=left;verticalAlign=top;spacingLeft=4;spacingRight=4;overflow=hidden;rotatable=0;points=[[0,0.5],[1,0.5]];portConstraint=eastwest;whiteSpace=wrap;html=1;fontColor=#143642;fontSize=13;labelBackgroundColor=none;" vertex="1" parent="M4-ka_P6qyNskd-XwN5T-58">
          <mxGeometry y="118" width="180" height="72" as="geometry" />
        </mxCell>
        <mxCell id="M4-ka_P6qyNskd-XwN5T-63" value="Alunos" style="swimlane;fontStyle=1;align=center;verticalAlign=top;childLayout=stackLayout;horizontal=1;startSize=26;horizontalStack=0;resizeParent=1;resizeParentMax=0;resizeLast=0;collapsible=1;marginBottom=0;whiteSpace=wrap;html=1;strokeColor=#0F8B8D;fontColor=#143642;fillColor=#FAE5C7;" vertex="1" parent="WIyWlLk6GJQsqaUBKTNV-1">
          <mxGeometry x="350" y="410" width="130" height="34" as="geometry">
            <mxRectangle x="47.5" y="400" width="80" height="30" as="alternateBounds" />
          </mxGeometry>
        </mxCell>
        <mxCell id="M4-ka_P6qyNskd-XwN5T-65" value="" style="line;strokeWidth=1;fillColor=none;align=left;verticalAlign=middle;spacingTop=-1;spacingLeft=3;spacingRight=3;rotatable=0;labelPosition=right;points=[];portConstraint=eastwest;strokeColor=inherit;fontColor=#143642;" vertex="1" parent="M4-ka_P6qyNskd-XwN5T-63">
          <mxGeometry y="26" width="130" height="8" as="geometry" />
        </mxCell>
        <mxCell id="M4-ka_P6qyNskd-XwN5T-67" value="Professores" style="swimlane;fontStyle=1;align=center;verticalAlign=top;childLayout=stackLayout;horizontal=1;startSize=26;horizontalStack=0;resizeParent=1;resizeParentMax=0;resizeLast=0;collapsible=1;marginBottom=0;whiteSpace=wrap;html=1;strokeColor=#0F8B8D;fontColor=#143642;fillColor=#FAE5C7;" vertex="1" parent="WIyWlLk6GJQsqaUBKTNV-1">
          <mxGeometry x="492.5" y="410" width="130" height="34" as="geometry" />
        </mxCell>
        <mxCell id="M4-ka_P6qyNskd-XwN5T-69" value="" style="line;strokeWidth=1;fillColor=none;align=left;verticalAlign=middle;spacingTop=-1;spacingLeft=3;spacingRight=3;rotatable=0;labelPosition=right;points=[];portConstraint=eastwest;strokeColor=inherit;fontColor=#143642;" vertex="1" parent="M4-ka_P6qyNskd-XwN5T-67">
          <mxGeometry y="26" width="130" height="8" as="geometry" />
        </mxCell>
        <mxCell id="M4-ka_P6qyNskd-XwN5T-71" value="Visitantes" style="swimlane;fontStyle=1;align=center;verticalAlign=top;childLayout=stackLayout;horizontal=1;startSize=26;horizontalStack=0;resizeParent=1;resizeParentMax=0;resizeLast=0;collapsible=1;marginBottom=0;whiteSpace=wrap;html=1;strokeColor=#0F8B8D;fontColor=#143642;fillColor=#FAE5C7;" vertex="1" parent="WIyWlLk6GJQsqaUBKTNV-1">
          <mxGeometry x="630" y="410" width="130" height="34" as="geometry" />
        </mxCell>
        <mxCell id="M4-ka_P6qyNskd-XwN5T-73" value="" style="line;strokeWidth=1;fillColor=none;align=left;verticalAlign=middle;spacingTop=-1;spacingLeft=3;spacingRight=3;rotatable=0;labelPosition=right;points=[];portConstraint=eastwest;strokeColor=inherit;fontColor=#143642;" vertex="1" parent="M4-ka_P6qyNskd-XwN5T-71">
          <mxGeometry y="26" width="130" height="8" as="geometry" />
        </mxCell>
        <mxCell id="M4-ka_P6qyNskd-XwN5T-75" value="Servidores" style="swimlane;fontStyle=1;align=center;verticalAlign=top;childLayout=stackLayout;horizontal=1;startSize=26;horizontalStack=0;resizeParent=1;resizeParentMax=0;resizeLast=0;collapsible=1;marginBottom=0;whiteSpace=wrap;html=1;strokeColor=#0F8B8D;fontColor=#143642;fillColor=#FAE5C7;" vertex="1" parent="WIyWlLk6GJQsqaUBKTNV-1">
          <mxGeometry x="770" y="410" width="130" height="34" as="geometry" />
        </mxCell>
        <mxCell id="M4-ka_P6qyNskd-XwN5T-77" value="" style="line;strokeWidth=1;fillColor=none;align=left;verticalAlign=middle;spacingTop=-1;spacingLeft=3;spacingRight=3;rotatable=0;labelPosition=right;points=[];portConstraint=eastwest;strokeColor=inherit;fontColor=#143642;" vertex="1" parent="M4-ka_P6qyNskd-XwN5T-75">
          <mxGeometry y="26" width="130" height="8" as="geometry" />
        </mxCell>
        <mxCell id="M4-ka_P6qyNskd-XwN5T-89" value="" style="endArrow=block;endSize=16;endFill=0;html=1;rounded=0;strokeColor=#A8201A;fontColor=#143642;fillColor=#FAE5C7;exitX=0.5;exitY=0;exitDx=0;exitDy=0;entryX=0.485;entryY=1.007;entryDx=0;entryDy=0;entryPerimeter=0;" edge="1" parent="WIyWlLk6GJQsqaUBKTNV-1" source="M4-ka_P6qyNskd-XwN5T-63" target="M4-ka_P6qyNskd-XwN5T-19">
          <mxGeometry width="160" relative="1" as="geometry">
            <mxPoint x="522.5" y="320" as="sourcePoint" />
            <mxPoint x="622.5" y="300" as="targetPoint" />
            <Array as="points">
              <mxPoint x="415.5" y="350" />
              <mxPoint x="622.5" y="350" />
            </Array>
          </mxGeometry>
        </mxCell>
        <mxCell id="M4-ka_P6qyNskd-XwN5T-90" value="" style="endArrow=none;html=1;edgeStyle=orthogonalEdgeStyle;rounded=0;strokeColor=#A8201A;fontColor=#143642;fillColor=#FAE5C7;entryX=0.5;entryY=0;entryDx=0;entryDy=0;" edge="1" parent="WIyWlLk6GJQsqaUBKTNV-1" target="M4-ka_P6qyNskd-XwN5T-75">
          <mxGeometry relative="1" as="geometry">
            <mxPoint x="542.5" y="350" as="sourcePoint" />
            <mxPoint x="732.5" y="480" as="targetPoint" />
          </mxGeometry>
        </mxCell>
        <mxCell id="M4-ka_P6qyNskd-XwN5T-91" value="" style="edgeLabel;resizable=0;html=1;align=left;verticalAlign=bottom;strokeColor=#0F8B8D;fontColor=#143642;fillColor=#FAE5C7;" connectable="0" vertex="1" parent="M4-ka_P6qyNskd-XwN5T-90">
          <mxGeometry x="-1" relative="1" as="geometry" />
        </mxCell>
        <mxCell id="M4-ka_P6qyNskd-XwN5T-92" value="" style="edgeLabel;resizable=0;html=1;align=right;verticalAlign=bottom;strokeColor=#0F8B8D;fontColor=#143642;fillColor=#FAE5C7;" connectable="0" vertex="1" parent="M4-ka_P6qyNskd-XwN5T-90">
          <mxGeometry x="1" relative="1" as="geometry" />
        </mxCell>
        <mxCell id="M4-ka_P6qyNskd-XwN5T-96" value="" style="endArrow=none;html=1;edgeStyle=orthogonalEdgeStyle;rounded=0;strokeColor=#A8201A;fontColor=#143642;fillColor=#FAE5C7;exitX=0.5;exitY=0;exitDx=0;exitDy=0;" edge="1" parent="WIyWlLk6GJQsqaUBKTNV-1" source="M4-ka_P6qyNskd-XwN5T-67">
          <mxGeometry relative="1" as="geometry">
            <mxPoint x="554" y="400" as="sourcePoint" />
            <mxPoint x="557.5" y="350" as="targetPoint" />
          </mxGeometry>
        </mxCell>
        <mxCell id="M4-ka_P6qyNskd-XwN5T-101" value="" style="endArrow=none;html=1;edgeStyle=orthogonalEdgeStyle;rounded=0;strokeColor=#A8201A;fontColor=#143642;fillColor=#FAE5C7;exitX=1;exitY=0.375;exitDx=0;exitDy=0;entryX=0;entryY=0.5;entryDx=0;entryDy=0;exitPerimeter=0;" edge="1" parent="WIyWlLk6GJQsqaUBKTNV-1" source="M4-ka_P6qyNskd-XwN5T-17" target="M4-ka_P6qyNskd-XwN5T-46">
          <mxGeometry relative="1" as="geometry">
            <mxPoint x="922.5" y="380" as="sourcePoint" />
            <mxPoint x="1082.5" y="380" as="targetPoint" />
          </mxGeometry>
        </mxCell>
        <mxCell id="M4-ka_P6qyNskd-XwN5T-102" value="(0,1)" style="edgeLabel;resizable=0;html=1;align=left;verticalAlign=bottom;strokeColor=#0F8B8D;fontColor=#143642;fillColor=#FAE5C7;fontSize=15;" connectable="0" vertex="1" parent="M4-ka_P6qyNskd-XwN5T-101">
          <mxGeometry x="-1" relative="1" as="geometry">
            <mxPoint x="13" y="-10" as="offset" />
          </mxGeometry>
        </mxCell>
        <mxCell id="M4-ka_P6qyNskd-XwN5T-103" value="(0,1)" style="edgeLabel;resizable=0;html=1;align=right;verticalAlign=bottom;strokeColor=#0F8B8D;fontColor=#143642;fillColor=#FAE5C7;fontSize=15;" connectable="0" vertex="1" parent="M4-ka_P6qyNskd-XwN5T-101">
          <mxGeometry x="1" relative="1" as="geometry">
            <mxPoint x="-10" y="-14" as="offset" />
          </mxGeometry>
        </mxCell>
        <mxCell id="M4-ka_P6qyNskd-XwN5T-118" value="" style="endArrow=none;html=1;edgeStyle=orthogonalEdgeStyle;rounded=0;strokeColor=#A8201A;fontColor=#143642;fillColor=#FAE5C7;exitX=0;exitY=0.5;exitDx=0;exitDy=0;entryX=1;entryY=0.5;entryDx=0;entryDy=0;" edge="1" parent="WIyWlLk6GJQsqaUBKTNV-1" source="M4-ka_P6qyNskd-XwN5T-17" target="M4-ka_P6qyNskd-XwN5T-59">
          <mxGeometry relative="1" as="geometry">
            <mxPoint x="520" y="360" as="sourcePoint" />
            <mxPoint x="680" y="360" as="targetPoint" />
          </mxGeometry>
        </mxCell>
        <mxCell id="M4-ka_P6qyNskd-XwN5T-119" value="(1,1)" style="edgeLabel;resizable=0;html=1;align=left;verticalAlign=bottom;strokeColor=#0F8B8D;fontColor=#143642;fillColor=#FAE5C7;fontSize=15;" connectable="0" vertex="1" parent="M4-ka_P6qyNskd-XwN5T-118">
          <mxGeometry x="-1" relative="1" as="geometry">
            <mxPoint x="-42" y="-8" as="offset" />
          </mxGeometry>
        </mxCell>
        <mxCell id="M4-ka_P6qyNskd-XwN5T-120" value="(0,1)" style="edgeLabel;resizable=0;html=1;align=right;verticalAlign=bottom;strokeColor=#0F8B8D;fontColor=#143642;fillColor=#FAE5C7;fontSize=15;" connectable="0" vertex="1" parent="M4-ka_P6qyNskd-XwN5T-118">
          <mxGeometry x="1" relative="1" as="geometry">
            <mxPoint x="40" y="-8" as="offset" />
          </mxGeometry>
        </mxCell>
        <mxCell id="M4-ka_P6qyNskd-XwN5T-121" value="" style="endArrow=none;html=1;edgeStyle=orthogonalEdgeStyle;rounded=0;strokeColor=#A8201A;fontColor=#143642;fillColor=#FAE5C7;exitX=1;exitY=0.5;exitDx=0;exitDy=0;entryX=1;entryY=0.5;entryDx=0;entryDy=0;" edge="1" parent="WIyWlLk6GJQsqaUBKTNV-1" source="M4-ka_P6qyNskd-XwN5T-9" target="M4-ka_P6qyNskd-XwN5T-46">
          <mxGeometry relative="1" as="geometry">
            <mxPoint x="980" y="430" as="sourcePoint" />
            <mxPoint x="1140" y="430" as="targetPoint" />
            <Array as="points">
              <mxPoint x="1290" y="443" />
              <mxPoint x="1290" y="154" />
            </Array>
          </mxGeometry>
        </mxCell>
        <mxCell id="M4-ka_P6qyNskd-XwN5T-123" value="(0,1)" style="edgeLabel;resizable=0;html=1;align=right;verticalAlign=bottom;strokeColor=#0F8B8D;fontColor=#143642;fillColor=#FAE5C7;fontSize=15;" connectable="0" vertex="1" parent="M4-ka_P6qyNskd-XwN5T-121">
          <mxGeometry x="1" relative="1" as="geometry">
            <mxPoint x="40" y="-5" as="offset" />
          </mxGeometry>
        </mxCell>
        <mxCell id="M4-ka_P6qyNskd-XwN5T-124" value="(0,1)" style="edgeLabel;resizable=0;html=1;align=right;verticalAlign=bottom;strokeColor=#0F8B8D;fontColor=#143642;fillColor=#FAE5C7;fontSize=15;" connectable="0" vertex="1" parent="WIyWlLk6GJQsqaUBKTNV-1">
          <mxGeometry x="1279.9999999999995" y="434" as="geometry" />
        </mxCell>
        <mxCell id="M4-ka_P6qyNskd-XwN5T-125" value="" style="endArrow=none;html=1;edgeStyle=orthogonalEdgeStyle;rounded=0;strokeColor=#A8201A;fontColor=#143642;fillColor=#FAE5C7;exitX=0.5;exitY=0;exitDx=0;exitDy=0;fontSize=15;entryX=0.994;entryY=0.754;entryDx=0;entryDy=0;entryPerimeter=0;" edge="1" parent="WIyWlLk6GJQsqaUBKTNV-1" source="M4-ka_P6qyNskd-XwN5T-28" target="M4-ka_P6qyNskd-XwN5T-17">
          <mxGeometry relative="1" as="geometry">
            <mxPoint x="980" y="430" as="sourcePoint" />
            <mxPoint x="740" y="200" as="targetPoint" />
            <Array as="points">
              <mxPoint x="810" y="590" />
              <mxPoint x="930" y="590" />
              <mxPoint x="930" y="185" />
            </Array>
          </mxGeometry>
        </mxCell>
        <mxCell id="M4-ka_P6qyNskd-XwN5T-126" value="(1,1)" style="edgeLabel;resizable=0;html=1;align=left;verticalAlign=bottom;strokeColor=#0F8B8D;fontColor=#143642;fillColor=#FAE5C7;fontSize=15;" connectable="0" vertex="1" parent="M4-ka_P6qyNskd-XwN5T-125">
          <mxGeometry x="-1" relative="1" as="geometry">
            <mxPoint x="10" y="-10" as="offset" />
          </mxGeometry>
        </mxCell>
        <mxCell id="M4-ka_P6qyNskd-XwN5T-127" value="(0,n)" style="edgeLabel;resizable=0;html=1;align=right;verticalAlign=bottom;strokeColor=#0F8B8D;fontColor=#143642;fillColor=#FAE5C7;fontSize=15;" connectable="0" vertex="1" parent="M4-ka_P6qyNskd-XwN5T-125">
          <mxGeometry x="1" relative="1" as="geometry">
            <mxPoint x="44" y="-5" as="offset" />
          </mxGeometry>
        </mxCell>
        <mxCell id="M4-ka_P6qyNskd-XwN5T-134" value="" style="endArrow=none;html=1;edgeStyle=orthogonalEdgeStyle;rounded=0;strokeColor=#A8201A;fontColor=#143642;fillColor=#FAE5C7;exitX=0.5;exitY=0;exitDx=0;exitDy=0;entryX=-0.014;entryY=0.931;entryDx=0;entryDy=0;entryPerimeter=0;" edge="1" parent="WIyWlLk6GJQsqaUBKTNV-1" source="M4-ka_P6qyNskd-XwN5T-40" target="M4-ka_P6qyNskd-XwN5T-17">
          <mxGeometry relative="1" as="geometry">
            <mxPoint x="510" y="630" as="sourcePoint" />
            <mxPoint x="670" y="630" as="targetPoint" />
            <Array as="points">
              <mxPoint x="185" y="310" />
              <mxPoint x="430" y="310" />
              <mxPoint x="430" y="210" />
            </Array>
          </mxGeometry>
        </mxCell>
        <mxCell id="M4-ka_P6qyNskd-XwN5T-135" value="(0,n)" style="edgeLabel;resizable=0;html=1;align=left;verticalAlign=bottom;strokeColor=#0F8B8D;fontColor=#143642;fillColor=#FAE5C7;fontSize=15;" connectable="0" vertex="1" parent="M4-ka_P6qyNskd-XwN5T-134">
          <mxGeometry x="-1" relative="1" as="geometry">
            <mxPoint x="5" y="-10" as="offset" />
          </mxGeometry>
        </mxCell>
        <mxCell id="M4-ka_P6qyNskd-XwN5T-136" value="(0,n)" style="edgeLabel;resizable=0;html=1;align=right;verticalAlign=bottom;strokeColor=#0F8B8D;fontColor=#143642;fillColor=#FAE5C7;fontSize=15;" connectable="0" vertex="1" parent="M4-ka_P6qyNskd-XwN5T-134">
          <mxGeometry x="1" relative="1" as="geometry">
            <mxPoint x="-10" y="-10" as="offset" />
          </mxGeometry>
        </mxCell>
        <mxCell id="M4-ka_P6qyNskd-XwN5T-138" value="" style="endArrow=none;html=1;edgeStyle=orthogonalEdgeStyle;rounded=0;strokeColor=#A8201A;fontColor=#143642;fillColor=#FAE5C7;exitX=0;exitY=0.5;exitDx=0;exitDy=0;entryX=0.464;entryY=0.988;entryDx=0;entryDy=0;entryPerimeter=0;" edge="1" parent="WIyWlLk6GJQsqaUBKTNV-1" source="M4-ka_P6qyNskd-XwN5T-33" target="M4-ka_P6qyNskd-XwN5T-11">
          <mxGeometry relative="1" as="geometry">
            <mxPoint x="1150" y="620" as="sourcePoint" />
            <mxPoint x="1310" y="620" as="targetPoint" />
            <Array as="points">
              <mxPoint x="1220" y="690" />
              <mxPoint x="1151" y="690" />
            </Array>
          </mxGeometry>
        </mxCell>
        <mxCell id="M4-ka_P6qyNskd-XwN5T-139" value="(1,1)" style="edgeLabel;resizable=0;html=1;align=left;verticalAlign=bottom;strokeColor=#0F8B8D;fontColor=#143642;fillColor=#FAE5C7;fontSize=15;" connectable="0" vertex="1" parent="M4-ka_P6qyNskd-XwN5T-138">
          <mxGeometry x="-1" relative="1" as="geometry">
            <mxPoint x="-40" as="offset" />
          </mxGeometry>
        </mxCell>
        <mxCell id="M4-ka_P6qyNskd-XwN5T-140" value="(0,n)" style="edgeLabel;resizable=0;html=1;align=right;verticalAlign=bottom;strokeColor=#0F8B8D;fontColor=#143642;fillColor=#FAE5C7;fontSize=15;" connectable="0" vertex="1" parent="M4-ka_P6qyNskd-XwN5T-138">
          <mxGeometry x="1" relative="1" as="geometry">
            <mxPoint x="39" y="31" as="offset" />
          </mxGeometry>
        </mxCell>
        <mxCell id="M4-ka_P6qyNskd-XwN5T-141" value="CorRFID_cargo" style="swimlane;fontStyle=1;align=center;verticalAlign=top;childLayout=stackLayout;horizontal=1;startSize=26;horizontalStack=0;resizeParent=1;resizeParentMax=0;resizeLast=0;collapsible=1;marginBottom=0;whiteSpace=wrap;html=1;strokeColor=#0F8B8D;fontColor=#143642;fillColor=#FAE5C7;labelBackgroundColor=none;" vertex="1" parent="WIyWlLk6GJQsqaUBKTNV-1">
          <mxGeometry x="980" y="760" width="180" height="170" as="geometry" />
        </mxCell>
        <mxCell id="M4-ka_P6qyNskd-XwN5T-142" value="-id: int(PK)&lt;div style=&quot;font-size: 13px;&quot;&gt;-corRfid: String&lt;br style=&quot;font-size: 13px;&quot;&gt;&lt;/div&gt;&lt;div style=&quot;font-size: 13px;&quot;&gt;-cod_cargo: int(FK)&lt;/div&gt;" style="text;strokeColor=none;fillColor=none;align=left;verticalAlign=top;spacingLeft=4;spacingRight=4;overflow=hidden;rotatable=0;points=[[0,0.5],[1,0.5]];portConstraint=eastwest;whiteSpace=wrap;html=1;fontColor=#143642;fontSize=13;labelBackgroundColor=none;" vertex="1" parent="M4-ka_P6qyNskd-XwN5T-141">
          <mxGeometry y="26" width="180" height="64" as="geometry" />
        </mxCell>
        <mxCell id="M4-ka_P6qyNskd-XwN5T-143" value="" style="line;strokeWidth=1;fillColor=none;align=left;verticalAlign=middle;spacingTop=-1;spacingLeft=3;spacingRight=3;rotatable=0;labelPosition=right;points=[];portConstraint=eastwest;strokeColor=#0F8B8D;fontColor=#143642;labelBackgroundColor=none;" vertex="1" parent="M4-ka_P6qyNskd-XwN5T-141">
          <mxGeometry y="90" width="180" height="8" as="geometry" />
        </mxCell>
        <mxCell id="M4-ka_P6qyNskd-XwN5T-144" value="+cadastrarCorRFID(): void&lt;div style=&quot;font-size: 13px;&quot;&gt;+editarCorRFID(): void&lt;/div&gt;&lt;div style=&quot;font-size: 13px;&quot;&gt;+listarCorRFID(): void&lt;br&gt;&lt;/div&gt;&lt;div style=&quot;font-size: 13px;&quot;&gt;+excluirCorRFID(): void&lt;/div&gt;" style="text;strokeColor=none;fillColor=none;align=left;verticalAlign=top;spacingLeft=4;spacingRight=4;overflow=hidden;rotatable=0;points=[[0,0.5],[1,0.5]];portConstraint=eastwest;whiteSpace=wrap;html=1;fontColor=#143642;fontSize=13;labelBackgroundColor=none;" vertex="1" parent="M4-ka_P6qyNskd-XwN5T-141">
          <mxGeometry y="98" width="180" height="72" as="geometry" />
        </mxCell>
        <mxCell id="M4-ka_P6qyNskd-XwN5T-145" value="" style="endArrow=none;html=1;edgeStyle=orthogonalEdgeStyle;rounded=0;strokeColor=#A8201A;fontColor=#143642;fillColor=#FAE5C7;exitX=1;exitY=0.5;exitDx=0;exitDy=0;entryX=0;entryY=0.5;entryDx=0;entryDy=0;" edge="1" parent="WIyWlLk6GJQsqaUBKTNV-1" source="M4-ka_P6qyNskd-XwN5T-29" target="M4-ka_P6qyNskd-XwN5T-142">
          <mxGeometry relative="1" as="geometry">
            <mxPoint x="670" y="670" as="sourcePoint" />
            <mxPoint x="830" y="670" as="targetPoint" />
          </mxGeometry>
        </mxCell>
        <mxCell id="M4-ka_P6qyNskd-XwN5T-146" value="(1,1)" style="edgeLabel;resizable=0;html=1;align=left;verticalAlign=bottom;strokeColor=#0F8B8D;fontColor=#143642;fillColor=#FAE5C7;fontSize=15;" connectable="0" vertex="1" parent="M4-ka_P6qyNskd-XwN5T-145">
          <mxGeometry x="-1" relative="1" as="geometry">
            <mxPoint x="10" y="-8" as="offset" />
          </mxGeometry>
        </mxCell>
        <mxCell id="M4-ka_P6qyNskd-XwN5T-147" value="(0,1)" style="edgeLabel;resizable=0;html=1;align=right;verticalAlign=bottom;strokeColor=#0F8B8D;fontColor=#143642;fillColor=#FAE5C7;fontSize=15;" connectable="0" vertex="1" parent="M4-ka_P6qyNskd-XwN5T-145">
          <mxGeometry x="1" relative="1" as="geometry">
            <mxPoint x="-10" y="-10" as="offset" />
          </mxGeometry>
        </mxCell>
        <mxCell id="M4-ka_P6qyNskd-XwN5T-148" value="" style="endArrow=none;html=1;edgeStyle=orthogonalEdgeStyle;rounded=0;strokeColor=#A8201A;fontColor=#143642;fillColor=#FAE5C7;entryX=0.5;entryY=0;entryDx=0;entryDy=0;exitX=0;exitY=0.5;exitDx=0;exitDy=0;" edge="1" parent="WIyWlLk6GJQsqaUBKTNV-1" source="M4-ka_P6qyNskd-XwN5T-9" target="M4-ka_P6qyNskd-XwN5T-141">
          <mxGeometry relative="1" as="geometry">
            <mxPoint x="660" y="910" as="sourcePoint" />
            <mxPoint x="820" y="910" as="targetPoint" />
            <Array as="points">
              <mxPoint x="1010" y="453" />
              <mxPoint x="1010" y="635" />
              <mxPoint x="1070" y="635" />
            </Array>
          </mxGeometry>
        </mxCell>
        <mxCell id="M4-ka_P6qyNskd-XwN5T-149" value="(0,n)" style="edgeLabel;resizable=0;html=1;align=left;verticalAlign=bottom;strokeColor=#0F8B8D;fontColor=#143642;fillColor=#FAE5C7;fontSize=15;" connectable="0" vertex="1" parent="M4-ka_P6qyNskd-XwN5T-148">
          <mxGeometry x="-1" relative="1" as="geometry">
            <mxPoint x="-40" y="-3" as="offset" />
          </mxGeometry>
        </mxCell>
        <mxCell id="M4-ka_P6qyNskd-XwN5T-150" value="(1,1)" style="edgeLabel;resizable=0;html=1;align=right;verticalAlign=bottom;strokeColor=#0F8B8D;fontColor=#143642;fillColor=#FAE5C7;fontSize=15;" connectable="0" vertex="1" parent="M4-ka_P6qyNskd-XwN5T-148">
          <mxGeometry x="1" relative="1" as="geometry">
            <mxPoint x="-10" y="-10" as="offset" />
          </mxGeometry>
        </mxCell>
        <mxCell id="M4-ka_P6qyNskd-XwN5T-151" value="" style="endArrow=none;html=1;edgeStyle=orthogonalEdgeStyle;rounded=0;strokeColor=#A8201A;fontColor=#143642;fillColor=#FAE5C7;exitX=0.5;exitY=0;exitDx=0;exitDy=0;" edge="1" parent="WIyWlLk6GJQsqaUBKTNV-1" source="M4-ka_P6qyNskd-XwN5T-71">
          <mxGeometry relative="1" as="geometry">
            <mxPoint x="570" y="410" as="sourcePoint" />
            <mxPoint x="695" y="350" as="targetPoint" />
          </mxGeometry>
        </mxCell>
      </root>
    </mxGraphModel>
  </diagram>
</mxfile>
